<?xml version="1.0" encoding="utf-8"?>
<!-- Generator: Adobe Illustrator 24.3.0, SVG Export Plug-In . SVG Version: 6.00 Build 0)  -->
<svg version="1.1" id="Calque_1" xmlns="http://www.w3.org/2000/svg" xmlns:xlink="http://www.w3.org/1999/xlink" x="0px" y="0px"
	 viewBox="0 0 841.89 595.28" style="enable-background:new 0 0 841.89 595.28;" xml:space="preserve">
<style type="text/css">
	.st0{fill:#151515;}
	.st1{fill:#98CEC7;}
	.st2{fill:#E8A791;}
	.st3{fill:#FBBB44;}
	.st4{fill:#68BBEA;}
</style>
<path class="st0" d="M320.64,231.76c-20.98,0-39.35,10.88-49.84,27.3c4.95,0.2,9.45,0.46,13.36,0.78c4.23,0.39,8.53,0.78,12.7,1.3
	c6.51-5.34,14.79-8.4,23.78-8.4c13.42,0,25.21,6.97,32.05,17.46c8.53,1.82,16.94,3.84,25.21,6.12
	C371.45,250.71,348.32,231.76,320.64,231.76z"/>
<path class="st0" d="M418.42,231.76v57.39c-6.84-2.61-13.88-4.95-20.98-7.17v-50.23H418.42z"/>
<path class="st0" d="M515.82,231.76v59.15c0,15.24-5.73,29.19-15.24,39.67l-1.76-1.24c-5.34-3.58-10.81-6.97-16.48-10.23
	c7.69-6.91,12.51-17,12.51-28.21v-59.15H515.82z"/>
<path class="st0" d="M142,231.76v13.94c-10.29-8.73-23.65-13.94-38.18-13.94c-32.7,0-59.22,26.51-59.22,59.15
	c0,6.19,0.98,12.12,2.74,17.72c6.38-3.32,12.77-6.38,19.22-9.32c-0.59-2.67-0.91-5.47-0.91-8.4c0-21.04,17.07-38.18,38.18-38.18
	c15.24,0,28.34,8.93,34.46,21.82c8.34-2.15,16.61-3.97,24.76-5.67v-37.13H142z"/>
<path class="st0" d="M251.71,231.76v20.98c-8.34,0-16.09,2.67-22.35,7.23c-11.4,0.78-23.78,2.02-36.87,3.91v-32.12h20.98v13.94
	C223.76,236.97,237.12,231.76,251.71,231.76z"/>
<path class="st1" d="M163.05,278.6v71.53H142v-13.94c-10.29,8.66-23.65,13.94-38.18,13.94c-23.13,0-43.19-13.29-52.96-32.64
	c6.25-3.26,12.57-6.32,18.96-9.19c6.38,12.38,19.22,20.85,34.01,20.85c21.11,0,38.18-17.13,38.18-38.24c0-2.54-0.26-4.95-0.72-7.3
	C148.58,281.72,155.88,280.03,163.05,278.6z"/>
<path class="st2" d="M219.59,270.19c-3.91,5.99-6.12,13.09-6.12,20.72v59.22h-20.98v-76.74
	C201.94,272.02,210.93,270.97,219.59,270.19z"/>
<path class="st3" d="M379.79,290.91c0,32.7-26.45,59.22-59.15,59.22s-59.22-26.51-59.22-59.22c0-7.95,1.56-15.57,4.49-22.54
	c6.58,0.13,12.44,0.46,17.39,0.91c1.82,0.2,3.65,0.33,5.47,0.59c-4.04,6.06-6.38,13.29-6.38,21.04c0,21.11,17.13,38.24,38.24,38.24
	c21.11,0,38.18-17.13,38.18-38.24c0-3.45-0.46-6.78-1.3-9.97c7.49,1.69,14.85,3.58,22.08,5.67
	C379.72,288.04,379.79,289.48,379.79,290.91z"/>
<path class="st4" d="M493.54,337.23c-10.1,8.08-22.93,12.9-36.87,12.9c-32.38,0-58.7-25.99-59.22-58.24
	c7.49,2.41,14.85,5.02,22.02,7.75c3.91,16.94,19.09,29.51,37.2,29.51c6.12,0,11.92-1.43,17.07-4.04
	c6.78,3.78,13.35,7.82,19.74,12.05L493.54,337.23z"/>
<g>
	<path d="M634.62,244.93c-10.17-8.25-23.14-13.2-37.26-13.2s-27.09,4.95-37.28,13.2v-13.2h-21v105.96v12.45h21v-23.46v-36.9
		c0-11,4.7-21.61,13.24-28.53c6.57-5.33,14.92-8.51,24.03-8.51s17.47,3.18,24.02,8.5c8.55,6.92,13.24,17.52,13.24,28.52v8.11v52.27
		h21v-57.78v-7.78c0-3.54-0.49-7.06-1.49-10.47C650.7,262.5,643.8,252.37,634.62,244.93z"/>
	<path d="M776.28,181.67v64.05c-10.31-8.72-23.63-13.98-38.2-13.98c-31.53,0-57.31,24.65-59.1,55.73c-0.08,1.15-0.11,2.31-0.11,3.47
		c0,32.7,26.52,59.21,59.21,59.21c14.57,0,27.89-5.26,38.2-13.98v13.98h21v-68.79v-99.68H776.28z M776.28,290.93
		c0,21.1-17.1,38.2-38.2,38.2c-21.09,0-38.19-17.1-38.19-38.2c0-2.34,0.21-4.64,0.62-6.86c3.24-17.81,18.83-31.33,37.57-31.33
		c17.37,0,32.01,11.59,36.67,27.44C775.73,283.59,776.28,287.19,776.28,290.93z"/>
</g>
</svg>
