<svg id="Calque_1" data-name="Calque 1" xmlns="http://www.w3.org/2000/svg" viewBox="0 0 330.77 330.77"><defs><style>.cls-1{fill:#fff;}.cls-2{fill:#1d1d1b;}.cls-3,.cls-4,.cls-5,.cls-6{fill:none;stroke-linecap:round;stroke-miterlimit:10;stroke-width:9.81px;}.cls-3{stroke:#98cec7;}.cls-4{stroke:#e8a791;}.cls-5{stroke:#fbbb44;}.cls-6{stroke:#68bbea;}</style></defs><rect class="cls-1" width="330.77" height="330.77" rx="56.63"/><path class="cls-2" d="M573.11,275.37v43.41a40.11,40.11,0,0,0-65.94,28.28c-.05.78-.07,1.57-.07,2.35a40.12,40.12,0,0,0,66,30.65v9.47h14.23V275.37ZM547.22,375.3a25.88,25.88,0,0,1-25.88-25.89,25.45,25.45,0,0,1,.42-4.65,25.89,25.89,0,1,1,25.46,30.54Z" transform="translate(-282.11 -132.18)"/><path class="cls-2" d="M430.83,205.59H416.59v80.23h14.24V245.7a25.87,25.87,0,0,1,25.88-25.88V205.59a39.88,39.88,0,0,0-25.88,9.47Z" transform="translate(-282.11 -132.18)"/><line class="cls-3" x1="165.38" y1="229.87" x2="265.56" y2="229.87"/><line class="cls-4" x1="126.11" y1="125.45" x2="280.43" y2="125.45"/><line class="cls-5" x1="75.32" y1="100.22" x2="218.66" y2="100.22"/><path class="cls-2" d="M542.89,252.73a35.92,35.92,0,0,0,.64-7,39,39,0,0,0-.34-5.35,40.14,40.14,0,0,0-79.91,5.35,36.71,36.71,0,0,0,.64,7,39.62,39.62,0,0,0,3.09,9.81,40.07,40.07,0,0,0,72.79,0H523.08a25.88,25.88,0,0,1-39.29,0,24.84,24.84,0,0,1-5.2-9.81,23.45,23.45,0,0,1-1-7,25.88,25.88,0,0,1,50-9.32,26.59,26.59,0,0,1,1.72,9.32,23.77,23.77,0,0,1-1,7Z" transform="translate(-282.11 -132.18)"/><path class="cls-2" d="M382.4,349.41A25.88,25.88,0,0,1,330.88,353a24.56,24.56,0,0,1-.25-3.56V309.3H316.4v40.11a40.12,40.12,0,1,0,80.23,0V309.3H382.4Z" transform="translate(-282.11 -132.18)"/><path class="cls-2" d="M382.4,215.06a40.12,40.12,0,1,0,0,61.28v9.48h14.23V205.59H382.4Zm0,30.64a25.88,25.88,0,1,1-1-7.23A25.89,25.89,0,0,1,382.4,245.7Z" transform="translate(-282.11 -132.18)"/><line class="cls-6" x1="61.83" y1="209.61" x2="172.49" y2="209.61"/><path class="cls-2" d="M477.12,318.24a40.14,40.14,0,0,0-50.51,0V309.3H412.38v80.23h14.23V349.14a25.39,25.39,0,0,1,8.87-19.75,25.85,25.85,0,0,1,32.85.06,25.4,25.4,0,0,1,8.79,19.69v40.39h14.23V346.7a38.12,38.12,0,0,0-1.56-10.4A40.22,40.22,0,0,0,477.12,318.24Z" transform="translate(-282.11 -132.18)"/></svg>